M48
INCH
T01C0.0197
T02C0.03
T03C0.0354
T04C0.0394
T05C0.04
T06C0.0433
T07C0.0472
T08C0.0591
T09C0.0669
T10C0.1181
T11C0.126
%
T01
X+029965Y+018467
T02
X+035144Y+016505
X+036019Y+016255
X+036019Y+015255
X+035144Y+015505
X+035082Y+014255
X+036082Y+014255
X+032394Y+016755
X+032394Y+017755
X+031517Y+018942
X+031517Y+019942
X+030517Y+019942
X+030517Y+018942
X+029392Y+018942
X+029392Y+019942
X+028392Y+019942
X+027392Y+019942
X+026392Y+019942
X+025392Y+019942
X+024456Y+019943
X+024456Y+018943
X+025392Y+018942
X+026392Y+018942
X+027392Y+018942
X+028392Y+018942
X+028081Y+017505
X+027143Y+017630
X+026143Y+017630
X+026206Y+016505
X+027206Y+016505
X+028081Y+016505
X+029144Y+016380
X+029144Y+017380
X+034894Y+018880
X+035894Y+018880
X+035894Y+020068
X+034894Y+020068
X+023392Y+019942
X+022392Y+019942
X+022392Y+018942
X+023392Y+018942
X+021392Y+018942
X+020392Y+018942
X+019392Y+018942
X+019392Y+019942
X+020392Y+019942
X+021392Y+019942
X+018392Y+019942
X+017392Y+019942
X+016392Y+019942
X+015392Y+019942
X+014392Y+019942
X+013392Y+019942
X+013392Y+018942
X+014392Y+018942
X+015392Y+018942
X+016392Y+018942
X+017392Y+018942
X+018392Y+018942
X+012392Y+018942
X+012392Y+019942
T03
X+014437Y+021255
X+015437Y+021255
X+015437Y+022255
X+014437Y+022255
X+016437Y+022255
X+016437Y+021255
X+017437Y+021255
X+017437Y+022255
X+018437Y+022255
X+018437Y+021255
X+019437Y+021255
X+019437Y+022255
X+020437Y+022255
X+020437Y+021255
X+021437Y+021255
X+021437Y+022255
X+022437Y+022255
X+022437Y+021255
X+023437Y+021255
X+023437Y+022255
X+024437Y+022255
X+024437Y+021255
X+025437Y+021255
X+025437Y+022255
X+026437Y+022255
X+026437Y+021255
X+027437Y+021255
X+028437Y+021255
X+028437Y+022255
X+027437Y+022255
X+029437Y+022255
X+029437Y+021255
X+030437Y+021255
X+030437Y+022255
X+031437Y+022255
X+031437Y+021255
X+032437Y+021255
X+033437Y+021255
X+033437Y+022255
X+032437Y+022255
X+032437Y+020255
X+033437Y+020255
X+033437Y+019255
X+032437Y+019255
T04
X+026829Y+012005
X+026829Y+013146
X+026829Y+014839
T05
X+034082Y+018130
X+034082Y+017130
X+031267Y+017317
X+030267Y+017317
T06
X+030204Y+014808G85X+030204Y+015201
X+032409Y+013036G85X+032015Y+013036
X+034220Y+014808G85X+034220Y+015201
T07
X+017705Y+014630
X+018606Y+014630
X+019508Y+014630
X+020410Y+014630
X+021311Y+014630
X+021744Y+015630
X+020847Y+015630
X+019949Y+015630
X+019051Y+015630
X+018154Y+015630
X+017252Y+015630
X+017705Y+016630
X+018603Y+016630
X+019500Y+016630
X+020398Y+016630
X+021295Y+016630
T08
X+028010Y+015233
X+028010Y+012477
T09
X+030972Y+011855
X+030972Y+013430
X+030972Y+015713
X+033452Y+015713
X+033452Y+013430
X+033452Y+011855
T10
X+012520Y+012633
X+012520Y+021688
X+035354Y+021688
X+035354Y+012633
T11
X+014689Y+015630
X+024532Y+015630
T00
M30
