G04 DipTrace 2.4.0.2*
%INAV_TopMask.GTS*%
%MOIN*%
%ADD30C,0.0591*%
%ADD31C,0.0669*%
%ADD32C,0.1181*%
%ADD42O,0.0709X0.0787*%
%ADD44R,0.0787X0.0787*%
%ADD46O,0.1654X0.0669*%
%ADD48O,0.0669X0.1654*%
%ADD50C,0.0866*%
%ADD52C,0.1732*%
%ADD54C,0.0866*%
%ADD56C,0.0779*%
%ADD58C,0.0879*%
%FSLAX44Y44*%
G04*
G70*
G90*
G75*
G01*
%LNTopMask*%
%LPD*%
D58*
X34082Y18130D3*
Y17130D3*
X30267Y17317D3*
X31267D3*
D56*
X35144Y16505D3*
Y15505D3*
X28081Y17505D3*
Y16505D3*
D54*
X17705Y14630D3*
X18606D3*
X19508D3*
X20410D3*
X21311D3*
X18154Y15630D3*
X19051D3*
X19949D3*
X20847D3*
X21744D3*
X17705Y16630D3*
X18603D3*
X19500D3*
X20398D3*
X21295D3*
D52*
X14689Y15630D3*
X24532D3*
D54*
X17252D3*
D50*
X26829Y12005D3*
Y13146D3*
Y14839D3*
D30*
X28010Y15233D3*
Y12477D3*
D48*
X30204Y15005D3*
D46*
X32212Y13036D3*
D48*
X34220Y15005D3*
D31*
X30972Y11855D3*
X33452D3*
Y13430D3*
X30972D3*
X33452Y15713D3*
X30972D3*
D56*
X34894Y20068D3*
X35894D3*
X34894Y18880D3*
X35894D3*
X32394Y16755D3*
Y17755D3*
X29144Y16380D3*
Y17380D3*
X21392Y18942D3*
Y19942D3*
X20392Y18942D3*
Y19942D3*
X18392Y18942D3*
Y19942D3*
X19392Y18942D3*
Y19942D3*
X31517Y18942D3*
Y19942D3*
X30517Y18942D3*
Y19942D3*
X17392Y18942D3*
Y19942D3*
X29392Y18942D3*
Y19942D3*
X16392Y18942D3*
Y19942D3*
X14392Y18942D3*
Y19942D3*
X28392Y18942D3*
Y19942D3*
X26392Y18942D3*
Y19942D3*
X22392Y18942D3*
Y19942D3*
X23392Y18942D3*
Y19942D3*
X24456Y18943D3*
Y19943D3*
X27392Y18942D3*
Y19942D3*
X25392Y18942D3*
Y19942D3*
X15392Y18942D3*
Y19942D3*
X13392Y18942D3*
Y19942D3*
X12392Y18942D3*
Y19942D3*
X36019Y15255D3*
Y16255D3*
X27143Y17630D3*
X26143D3*
X36082Y14255D3*
X35082D3*
X27206Y16505D3*
X26206D3*
D44*
X14437Y21255D3*
D42*
X15437D3*
X16437D3*
X17437D3*
X18437D3*
X19437D3*
X20437D3*
X21437D3*
X22437D3*
X23437D3*
X24437D3*
X25437D3*
X26437D3*
X27437D3*
X28437D3*
X29437D3*
X30437D3*
X31437D3*
X32437D3*
X33437D3*
Y22255D3*
X32437D3*
X31437D3*
X30437D3*
X29437D3*
X28437D3*
X27437D3*
X26437D3*
X25437D3*
X24437D3*
X23437D3*
X22437D3*
X21437D3*
X20437D3*
X19437D3*
X18437D3*
X17437D3*
X16437D3*
X15437D3*
X14437D3*
X32437Y20255D3*
X33437D3*
X32437Y19255D3*
X33437D3*
D32*
X12520Y12633D3*
Y21688D3*
X35354D3*
Y12633D3*
M02*
