G04 DipTrace 2.4.0.2*
%INAV_TopSilk.GTO*%
%MOIN*%
%ADD10C,0.0098*%
%ADD12C,0.003*%
%ADD60C,0.0046*%
%ADD61C,0.0093*%
%ADD63C,0.0154*%
%FSLAX44Y44*%
G04*
G70*
G90*
G75*
G01*
%LNTopSilk*%
%LPD*%
X33137Y17619D2*
D10*
G02X33137Y17619I984J0D01*
G01*
X33373Y18682D2*
X33058D1*
X33215Y18839D2*
Y18524D1*
X29794Y17356D2*
G02X29794Y17356I984J0D01*
G01*
X29715Y16608D2*
Y16293D1*
X29558Y16451D2*
X29873D1*
X35144Y16072D2*
Y15954D1*
X28081Y17072D2*
Y16954D1*
X13547Y18429D2*
X25673D1*
Y11130D1*
X13547D1*
Y18429D1*
X26632Y15627D2*
X26635Y15296D1*
X26632Y15627D2*
X29388D1*
X26632Y14421D2*
X26635Y13608D1*
X26632Y12733D2*
Y12421D1*
X26635Y11546D2*
X26632Y11296D1*
X29388D1*
Y15627D2*
Y11296D1*
X30244Y14149D2*
Y11523D1*
Y16186D2*
X34180D1*
X30244Y11461D2*
X34180D1*
Y14149D1*
X30244Y16186D2*
Y15871D1*
X34180Y16186D2*
Y15871D1*
X35394Y20068D2*
G02X35394Y20068I500J0D01*
G01*
X35327D1*
X35394Y18880D2*
G02X35394Y18880I500J0D01*
G01*
X35327D1*
X31894Y17755D2*
G02X31894Y17755I500J0D01*
G01*
X32394Y17255D2*
Y17188D1*
X28644Y17380D2*
G02X28644Y17380I500J0D01*
G01*
X29144Y16880D2*
Y16813D1*
X21392Y19380D2*
Y19505D1*
X20392Y19380D2*
Y19505D1*
X18392Y19380D2*
Y19505D1*
X19392Y19380D2*
Y19505D1*
X31517Y19380D2*
Y19505D1*
X30517Y19380D2*
Y19505D1*
X17392Y19380D2*
Y19505D1*
X29392Y19380D2*
Y19505D1*
X16392Y19380D2*
Y19505D1*
X14392Y19380D2*
Y19505D1*
X28392Y19380D2*
Y19505D1*
X26392Y19380D2*
Y19505D1*
X22392Y19380D2*
Y19505D1*
X23392Y19380D2*
Y19505D1*
X24456Y19380D2*
Y19505D1*
X27392Y19380D2*
Y19505D1*
X25392Y19380D2*
Y19505D1*
X15392Y19380D2*
Y19505D1*
X13392Y19380D2*
Y19505D1*
X12392Y19380D2*
Y19505D1*
X36019Y15692D2*
Y15818D1*
X26706Y17630D2*
X26581D1*
X35644Y14255D2*
X35519D1*
X26768Y16505D2*
X26643D1*
X26937Y22755D2*
Y20755D1*
X13937Y20770D2*
X33937D1*
Y22739D1*
X13937D1*
Y20770D1*
X31937Y18755D2*
X33937D1*
Y20755D1*
X31937D1*
Y18755D1*
X12177Y18006D2*
D12*
X12416D1*
X12626D2*
X12835D1*
X12134Y17976D2*
X12452D1*
X12576D2*
X12878D1*
X12100Y17946D2*
X12492D1*
X12527D2*
X12912D1*
X12074Y17916D2*
X12938D1*
X12053Y17886D2*
X12958D1*
X12036Y17856D2*
X12976D1*
X12021Y17826D2*
X12213D1*
X12380D2*
X12657D1*
X12799D2*
X12990D1*
X12010Y17796D2*
X12195D1*
X12398D2*
X12632D1*
X12817D2*
X13002D1*
X12003Y17766D2*
X12185D1*
X12408D2*
X12614D1*
X12827D2*
X13009D1*
X12000Y17736D2*
X12180D1*
X12413D2*
X12604D1*
X12832D2*
X13012D1*
X11998Y17707D2*
X12178D1*
X12415D2*
X12599D1*
X12834D2*
X13014D1*
X11998Y17677D2*
X12177D1*
X12416D2*
X12597D1*
X12835D2*
X13014D1*
X11997Y17647D2*
X12177D1*
X12416D2*
X12596D1*
X12835D2*
X13014D1*
X11997Y17617D2*
X12177D1*
X12416D2*
X12596D1*
X12835D2*
X13014D1*
X11997Y17587D2*
X12177D1*
X12416D2*
X12596D1*
X12835D2*
X13015D1*
X11997Y17557D2*
X12177D1*
X12416D2*
X12596D1*
X12835D2*
X13015D1*
X11997Y17527D2*
X12177D1*
X12416D2*
X12596D1*
X12835D2*
X13015D1*
X11997Y17497D2*
X12177D1*
X12416D2*
X12596D1*
X12835D2*
X13015D1*
X11997Y17467D2*
X12177D1*
X12416D2*
X12596D1*
X12835D2*
X13015D1*
X11997Y17437D2*
X12177D1*
X12416D2*
X12596D1*
X12835D2*
X13015D1*
X11997Y17407D2*
X12177D1*
X12416D2*
X12596D1*
X12835D2*
X13015D1*
X11997Y17377D2*
X13015D1*
X11997Y17348D2*
X13015D1*
X11997Y17318D2*
X13015D1*
X11997Y17288D2*
X13015D1*
X11997Y17258D2*
X13015D1*
X11997Y17228D2*
X13015D1*
X12267Y17018D2*
X13015D1*
X12213Y16988D2*
X13015D1*
X12166Y16959D2*
X13015D1*
X12130Y16929D2*
X13015D1*
X12103Y16899D2*
X13015D1*
X12079Y16869D2*
X13015D1*
X12059Y16839D2*
X12303D1*
X12626D2*
X12805D1*
X12042Y16809D2*
X12260D1*
X12626D2*
X12805D1*
X12030Y16779D2*
X12228D1*
X12626D2*
X12805D1*
X12018Y16749D2*
X12206D1*
X12626D2*
X12805D1*
X12009Y16719D2*
X12192D1*
X12626D2*
X12805D1*
X12003Y16689D2*
X12183D1*
X12626D2*
X12805D1*
X12000Y16659D2*
X12180D1*
X12626D2*
X12805D1*
X11999Y16629D2*
X12178D1*
X12626D2*
X12805D1*
X12003Y16599D2*
X12178D1*
X12626D2*
X12805D1*
X12010Y16570D2*
X12183D1*
X12626D2*
X12805D1*
X12018Y16540D2*
X12192D1*
X12626D2*
X12805D1*
X12027Y16510D2*
X12219D1*
X12626D2*
X12805D1*
X12038Y16480D2*
X12254D1*
X12626D2*
X12805D1*
X12052Y16450D2*
X12361D1*
X12626D2*
X12805D1*
X12070Y16420D2*
X12521D1*
X12626D2*
X12805D1*
X12093Y16390D2*
X13015D1*
X12121Y16360D2*
X13015D1*
X12155Y16330D2*
X13015D1*
X12201Y16300D2*
X13015D1*
X12260Y16270D2*
X13015D1*
X12326Y16240D2*
X13015D1*
X12267Y16061D2*
X12536D1*
X12213Y16031D2*
X12590D1*
X12166Y16001D2*
X12642D1*
X12130Y15971D2*
X12701D1*
X12925D2*
X13015D1*
X12103Y15941D2*
X12777D1*
X12809D2*
X13015D1*
X12079Y15911D2*
X13014D1*
X12059Y15881D2*
X12303D1*
X12499D2*
X13013D1*
X12042Y15851D2*
X12260D1*
X12542D2*
X13010D1*
X12030Y15822D2*
X12228D1*
X12574D2*
X12995D1*
X12018Y15792D2*
X12206D1*
X12596D2*
X12959D1*
X12009Y15762D2*
X12192D1*
X12611D2*
X12916D1*
X12003Y15732D2*
X12183D1*
X12619D2*
X12873D1*
X11999Y15702D2*
X12180D1*
X12623D2*
X12835D1*
X11998Y15672D2*
X12178D1*
X12624D2*
X12820D1*
X11998Y15642D2*
X12177D1*
X12625D2*
X12811D1*
X11997Y15612D2*
X12177D1*
X12625D2*
X12808D1*
X11997Y15582D2*
X12177D1*
X12626D2*
X12806D1*
X11997Y15552D2*
X12177D1*
X12626D2*
X12805D1*
X11997Y15522D2*
X12177D1*
X12626D2*
X12805D1*
X11997Y15492D2*
X12177D1*
X12626D2*
X12805D1*
X11997Y15462D2*
X12177D1*
X12626D2*
X12805D1*
X11997Y15433D2*
X13015D1*
X11997Y15403D2*
X13015D1*
X11997Y15373D2*
X13015D1*
X11997Y15343D2*
X13015D1*
X11997Y15313D2*
X13015D1*
X11997Y15283D2*
X13015D1*
X12925Y15133D2*
D3*
X12087Y15103D2*
X12147D1*
X12879D2*
X12955D1*
X12076Y15073D2*
X12207D1*
X12828D2*
X12966D1*
X12063Y15044D2*
X12267D1*
X12775D2*
X12979D1*
X12050Y15014D2*
X12241D1*
X12800D2*
X12992D1*
X12038Y14984D2*
X12220D1*
X12822D2*
X13003D1*
X12028Y14954D2*
X12203D1*
X12839D2*
X13014D1*
X12017Y14924D2*
X12190D1*
X12851D2*
X13024D1*
X12008Y14894D2*
X12183D1*
X12859D2*
X13033D1*
X12002Y14864D2*
X12179D1*
X12862D2*
X13039D1*
X11999Y14834D2*
X12178D1*
X12864D2*
X13042D1*
X11998Y14804D2*
X12177D1*
X12865D2*
X13043D1*
X11999Y14774D2*
X12177D1*
X12865D2*
X13043D1*
X12002Y14744D2*
X12178D1*
X12864D2*
X13039D1*
X12010Y14714D2*
X12182D1*
X12860D2*
X13032D1*
X12018Y14685D2*
X12190D1*
X12851D2*
X13023D1*
X12027Y14655D2*
X12203D1*
X12839D2*
X13014D1*
X12038Y14625D2*
X12220D1*
X12821D2*
X13003D1*
X12051Y14595D2*
X12245D1*
X12796D2*
X12990D1*
X12065Y14565D2*
X12277D1*
X12765D2*
X12976D1*
X12081Y14535D2*
X12372D1*
X12670D2*
X12961D1*
X12100Y14505D2*
X12525D1*
X12517D2*
X12942D1*
X12123Y14475D2*
X12918D1*
X12151Y14445D2*
X12887D1*
X12184Y14415D2*
X12850D1*
X12228Y14385D2*
X12806D1*
X12287Y14355D2*
X12750D1*
X12362Y14325D2*
X12677D1*
X12446Y14296D2*
X12596D1*
X12177Y18006D2*
X12134Y17976D1*
X12100Y17946D1*
X12074Y17916D1*
X12053Y17886D1*
X12036Y17856D1*
X12021Y17826D1*
X12010Y17796D1*
X12003Y17766D1*
X12000Y17736D1*
X11998Y17707D1*
Y17677D1*
X11997Y17647D1*
Y17617D1*
Y17587D1*
Y17557D1*
Y17527D1*
Y17497D1*
Y17467D1*
Y17437D1*
Y17407D1*
Y17377D1*
Y17348D1*
Y17318D1*
Y17288D1*
Y17258D1*
Y17228D1*
X12416Y18006D2*
X12452Y17976D1*
X12492Y17946D1*
X12536Y17916D1*
X12626Y18006D2*
X12576Y17976D1*
X12527Y17946D1*
X12476Y17916D1*
X12835Y18006D2*
X12878Y17976D1*
X12912Y17946D1*
X12938Y17916D1*
X12958Y17886D1*
X12976Y17856D1*
X12990Y17826D1*
X13002Y17796D1*
X13009Y17766D1*
X13012Y17736D1*
X13014Y17707D1*
Y17677D1*
Y17647D1*
Y17617D1*
X13015Y17587D1*
Y17557D1*
Y17527D1*
Y17497D1*
Y17467D1*
Y17437D1*
Y17407D1*
Y17377D1*
Y17348D1*
Y17318D1*
Y17288D1*
Y17258D1*
Y17228D1*
X12237Y17856D2*
X12213Y17826D1*
X12195Y17796D1*
X12185Y17766D1*
X12180Y17736D1*
X12178Y17707D1*
X12177Y17677D1*
Y17647D1*
Y17617D1*
Y17587D1*
Y17557D1*
Y17527D1*
Y17497D1*
Y17467D1*
Y17437D1*
Y17407D1*
X12386Y17377D1*
X12356Y17856D2*
X12380Y17826D1*
X12398Y17796D1*
X12408Y17766D1*
X12413Y17736D1*
X12415Y17707D1*
X12416Y17677D1*
Y17647D1*
Y17617D1*
Y17587D1*
Y17557D1*
Y17527D1*
Y17497D1*
Y17467D1*
Y17437D1*
Y17407D1*
X12207Y17377D1*
X12685Y17856D2*
X12657Y17826D1*
X12632Y17796D1*
X12614Y17766D1*
X12604Y17736D1*
X12599Y17707D1*
X12597Y17677D1*
X12596Y17647D1*
Y17617D1*
Y17587D1*
Y17557D1*
Y17527D1*
Y17497D1*
Y17467D1*
Y17437D1*
Y17407D1*
X12805Y17377D1*
X12775Y17856D2*
X12799Y17826D1*
X12817Y17796D1*
X12827Y17766D1*
X12832Y17736D1*
X12834Y17707D1*
X12835Y17677D1*
Y17647D1*
Y17617D1*
Y17587D1*
Y17557D1*
Y17527D1*
Y17497D1*
Y17467D1*
Y17437D1*
Y17407D1*
X12626Y17377D1*
X12267Y17018D2*
X12213Y16988D1*
X12166Y16959D1*
X12130Y16929D1*
X12103Y16899D1*
X12079Y16869D1*
X12059Y16839D1*
X12042Y16809D1*
X12030Y16779D1*
X12018Y16749D1*
X12009Y16719D1*
X12003Y16689D1*
X12000Y16659D1*
X11999Y16629D1*
X12003Y16599D1*
X12010Y16570D1*
X12018Y16540D1*
X12027Y16510D1*
X12038Y16480D1*
X12052Y16450D1*
X12070Y16420D1*
X12093Y16390D1*
X12121Y16360D1*
X12155Y16330D1*
X12201Y16300D1*
X12260Y16270D1*
X12326Y16240D1*
X13015Y17018D2*
Y16988D1*
Y16959D1*
Y16929D1*
Y16899D1*
Y16869D1*
Y16839D1*
X12805D1*
Y16809D1*
Y16779D1*
Y16749D1*
Y16719D1*
Y16689D1*
Y16659D1*
Y16629D1*
Y16599D1*
Y16570D1*
Y16540D1*
Y16510D1*
Y16480D1*
Y16450D1*
Y16420D1*
Y16390D1*
X13015D1*
Y16360D1*
Y16330D1*
Y16300D1*
Y16270D1*
Y16240D1*
X12356Y16869D2*
X12303Y16839D1*
X12260Y16809D1*
X12228Y16779D1*
X12206Y16749D1*
X12192Y16719D1*
X12183Y16689D1*
X12180Y16659D1*
X12178Y16629D1*
Y16599D1*
X12183Y16570D1*
X12192Y16540D1*
X12219Y16510D1*
X12254Y16480D1*
X12361Y16450D1*
X12521Y16420D1*
X12715Y16390D1*
X12626Y16869D2*
Y16839D1*
Y16809D1*
Y16779D1*
Y16749D1*
Y16719D1*
Y16689D1*
Y16659D1*
Y16629D1*
Y16599D1*
Y16570D1*
Y16540D1*
Y16510D1*
Y16480D1*
Y16450D1*
Y16420D1*
X12416Y16390D1*
X12267Y16061D2*
X12213Y16031D1*
X12166Y16001D1*
X12130Y15971D1*
X12103Y15941D1*
X12079Y15911D1*
X12059Y15881D1*
X12042Y15851D1*
X12030Y15822D1*
X12018Y15792D1*
X12009Y15762D1*
X12003Y15732D1*
X11999Y15702D1*
X11998Y15672D1*
Y15642D1*
X11997Y15612D1*
Y15582D1*
Y15552D1*
Y15522D1*
Y15492D1*
Y15462D1*
Y15433D1*
Y15403D1*
Y15373D1*
Y15343D1*
Y15313D1*
Y15283D1*
X12536Y16061D2*
X12590Y16031D1*
X12642Y16001D1*
X12701Y15971D1*
X12777Y15941D1*
X12865Y15911D1*
X12925Y15971D2*
X12809Y15941D1*
X12685Y15911D1*
X13015Y15971D2*
Y15941D1*
X13014Y15911D1*
X13013Y15881D1*
X13010Y15851D1*
X12995Y15822D1*
X12959Y15792D1*
X12916Y15762D1*
X12873Y15732D1*
X12835Y15702D1*
X12820Y15672D1*
X12811Y15642D1*
X12808Y15612D1*
X12806Y15582D1*
X12805Y15552D1*
Y15522D1*
Y15492D1*
Y15462D1*
Y15433D1*
X13015D1*
Y15403D1*
Y15373D1*
Y15343D1*
Y15313D1*
Y15283D1*
X12356Y15911D2*
X12303Y15881D1*
X12260Y15851D1*
X12228Y15822D1*
X12206Y15792D1*
X12192Y15762D1*
X12183Y15732D1*
X12180Y15702D1*
X12178Y15672D1*
X12177Y15642D1*
Y15612D1*
Y15582D1*
Y15552D1*
Y15522D1*
Y15492D1*
Y15462D1*
Y15433D1*
X12446Y15911D2*
X12499Y15881D1*
X12542Y15851D1*
X12574Y15822D1*
X12596Y15792D1*
X12611Y15762D1*
X12619Y15732D1*
X12623Y15702D1*
X12624Y15672D1*
X12625Y15642D1*
Y15612D1*
X12626Y15582D1*
Y15552D1*
Y15522D1*
Y15492D1*
Y15462D1*
Y15433D1*
X12925Y15133D2*
X12879Y15103D1*
X12828Y15073D1*
X12775Y15044D1*
X12800Y15014D1*
X12822Y14984D1*
X12839Y14954D1*
X12851Y14924D1*
X12859Y14894D1*
X12862Y14864D1*
X12864Y14834D1*
X12865Y14804D1*
Y14774D1*
X12864Y14744D1*
X12860Y14714D1*
X12851Y14685D1*
X12839Y14655D1*
X12821Y14625D1*
X12796Y14595D1*
X12765Y14565D1*
X12670Y14535D1*
X12517Y14505D1*
X12326Y14475D1*
X12087Y15103D2*
X12076Y15073D1*
X12063Y15044D1*
X12050Y15014D1*
X12038Y14984D1*
X12028Y14954D1*
X12017Y14924D1*
X12008Y14894D1*
X12002Y14864D1*
X11999Y14834D1*
X11998Y14804D1*
X11999Y14774D1*
X12002Y14744D1*
X12010Y14714D1*
X12018Y14685D1*
X12027Y14655D1*
X12038Y14625D1*
X12051Y14595D1*
X12065Y14565D1*
X12081Y14535D1*
X12100Y14505D1*
X12123Y14475D1*
X12151Y14445D1*
X12184Y14415D1*
X12228Y14385D1*
X12287Y14355D1*
X12362Y14325D1*
X12446Y14296D1*
X12147Y15103D2*
X12207Y15073D1*
X12267Y15044D1*
X12241Y15014D1*
X12220Y14984D1*
X12203Y14954D1*
X12190Y14924D1*
X12183Y14894D1*
X12179Y14864D1*
X12178Y14834D1*
X12177Y14804D1*
Y14774D1*
X12178Y14744D1*
X12182Y14714D1*
X12190Y14685D1*
X12203Y14655D1*
X12220Y14625D1*
X12245Y14595D1*
X12277Y14565D1*
X12372Y14535D1*
X12525Y14505D1*
X12715Y14475D1*
X12955Y15103D2*
X12966Y15073D1*
X12979Y15044D1*
X12992Y15014D1*
X13003Y14984D1*
X13014Y14954D1*
X13024Y14924D1*
X13033Y14894D1*
X13039Y14864D1*
X13042Y14834D1*
X13043Y14804D1*
Y14774D1*
X13039Y14744D1*
X13032Y14714D1*
X13023Y14685D1*
X13014Y14655D1*
X13003Y14625D1*
X12990Y14595D1*
X12976Y14565D1*
X12961Y14535D1*
X12942Y14505D1*
X12918Y14475D1*
X12887Y14445D1*
X12850Y14415D1*
X12806Y14385D1*
X12750Y14355D1*
X12677Y14325D1*
X12596Y14296D1*
X33544Y17769D2*
D60*
X33530Y17798D1*
X33501Y17827D1*
X33473Y17841D1*
X33415D1*
X33387Y17827D1*
X33358Y17798D1*
X33343Y17769D1*
X33329Y17726D1*
Y17654D1*
X33343Y17611D1*
X33358Y17582D1*
X33387Y17554D1*
X33415Y17539D1*
X33473D1*
X33501Y17554D1*
X33530Y17582D1*
X33544Y17611D1*
X33637Y17783D2*
X33666Y17798D1*
X33709Y17840D1*
Y17539D1*
X30731Y18038D2*
X30717Y18067D1*
X30688Y18095D1*
X30659Y18110D1*
X30602D1*
X30573Y18095D1*
X30545Y18067D1*
X30530Y18038D1*
X30516Y17995D1*
Y17923D1*
X30530Y17880D1*
X30545Y17851D1*
X30573Y17823D1*
X30602Y17808D1*
X30659D1*
X30688Y17823D1*
X30717Y17851D1*
X30731Y17880D1*
X30838Y18038D2*
Y18052D1*
X30852Y18081D1*
X30867Y18095D1*
X30896Y18109D1*
X30953D1*
X30981Y18095D1*
X30996Y18081D1*
X31010Y18052D1*
Y18024D1*
X30996Y17995D1*
X30967Y17952D1*
X30824Y17808D1*
X31025D1*
X35310Y17160D2*
X35296Y17189D1*
X35267Y17218D1*
X35238Y17232D1*
X35181D1*
X35152Y17218D1*
X35123Y17189D1*
X35109Y17160D1*
X35095Y17117D1*
Y17045D1*
X35109Y17002D1*
X35123Y16974D1*
X35152Y16945D1*
X35181Y16931D1*
X35238D1*
X35267Y16945D1*
X35296Y16974D1*
X35310Y17002D1*
X35431Y17232D2*
X35589D1*
X35503Y17117D1*
X35546D1*
X35575Y17103D1*
X35589Y17088D1*
X35603Y17045D1*
Y17017D1*
X35589Y16974D1*
X35560Y16945D1*
X35517Y16931D1*
X35474D1*
X35431Y16945D1*
X35417Y16959D1*
X35402Y16988D1*
X28035Y18223D2*
X28020Y18251D1*
X27992Y18280D1*
X27963Y18295D1*
X27906D1*
X27877Y18280D1*
X27848Y18251D1*
X27834Y18223D1*
X27819Y18180D1*
Y18108D1*
X27834Y18065D1*
X27848Y18036D1*
X27877Y18008D1*
X27906Y17993D1*
X27963D1*
X27992Y18008D1*
X28020Y18036D1*
X28035Y18065D1*
X28271Y17993D2*
Y18294D1*
X28127Y18094D1*
X28343D1*
X34157Y20762D2*
Y20461D1*
X34258D1*
X34301Y20475D1*
X34329Y20504D1*
X34344Y20533D1*
X34358Y20576D1*
Y20648D1*
X34344Y20691D1*
X34329Y20719D1*
X34301Y20748D1*
X34258Y20762D1*
X34157D1*
X34451Y20705D2*
X34479Y20719D1*
X34523Y20762D1*
Y20461D1*
X34157Y19570D2*
Y19269D1*
X34257D1*
X34300Y19283D1*
X34329Y19312D1*
X34343Y19341D1*
X34357Y19384D1*
Y19455D1*
X34343Y19499D1*
X34329Y19527D1*
X34300Y19556D1*
X34257Y19570D1*
X34157D1*
X34465Y19498D2*
Y19513D1*
X34479Y19541D1*
X34493Y19556D1*
X34522Y19570D1*
X34579D1*
X34608Y19556D1*
X34622Y19541D1*
X34637Y19513D1*
Y19484D1*
X34622Y19455D1*
X34594Y19412D1*
X34450Y19269D1*
X34651D1*
X32147Y18632D2*
Y18331D1*
X32247D1*
X32290Y18345D1*
X32319Y18374D1*
X32333Y18403D1*
X32348Y18445D1*
Y18517D1*
X32333Y18560D1*
X32319Y18589D1*
X32290Y18618D1*
X32247Y18632D1*
X32147D1*
X32469D2*
X32627D1*
X32541Y18517D1*
X32584D1*
X32612Y18503D1*
X32627Y18488D1*
X32641Y18445D1*
Y18417D1*
X32627Y18374D1*
X32598Y18345D1*
X32555Y18331D1*
X32512D1*
X32469Y18345D1*
X32455Y18359D1*
X32440Y18388D1*
X28952Y18319D2*
Y18018D1*
X29052D1*
X29095Y18033D1*
X29124Y18061D1*
X29138Y18090D1*
X29153Y18133D1*
Y18205D1*
X29138Y18248D1*
X29124Y18276D1*
X29095Y18305D1*
X29052Y18319D1*
X28952D1*
X29389Y18018D2*
Y18319D1*
X29245Y18118D1*
X29461D1*
X21164Y20521D2*
X21293D1*
X21336Y20535D1*
X21351Y20550D1*
X21365Y20578D1*
Y20607D1*
X21351Y20636D1*
X21336Y20650D1*
X21293Y20664D1*
X21164D1*
Y20363D1*
X21264Y20521D2*
X21365Y20363D1*
X21457Y20607D2*
X21486Y20621D1*
X21529Y20664D1*
Y20363D1*
X20144Y20525D2*
X20273D1*
X20317Y20540D1*
X20331Y20554D1*
X20345Y20583D1*
Y20612D1*
X20331Y20640D1*
X20317Y20655D1*
X20273Y20669D1*
X20144D1*
Y20367D1*
X20245Y20525D2*
X20345Y20367D1*
X20453Y20597D2*
Y20611D1*
X20467Y20640D1*
X20481Y20654D1*
X20510Y20669D1*
X20567D1*
X20596Y20654D1*
X20610Y20640D1*
X20625Y20611D1*
Y20583D1*
X20610Y20554D1*
X20582Y20511D1*
X20438Y20367D1*
X20639D1*
X18144Y20525D2*
X18273D1*
X18317Y20540D1*
X18331Y20554D1*
X18345Y20583D1*
Y20612D1*
X18331Y20640D1*
X18317Y20655D1*
X18273Y20669D1*
X18144D1*
Y20367D1*
X18245Y20525D2*
X18345Y20367D1*
X18467Y20669D2*
X18624D1*
X18539Y20554D1*
X18582D1*
X18610Y20540D1*
X18624Y20525D1*
X18639Y20482D1*
Y20454D1*
X18624Y20411D1*
X18596Y20382D1*
X18553Y20367D1*
X18510D1*
X18467Y20382D1*
X18453Y20396D1*
X18438Y20425D1*
X19167Y20502D2*
X19296D1*
X19339Y20517D1*
X19353Y20531D1*
X19368Y20560D1*
Y20588D1*
X19353Y20617D1*
X19339Y20632D1*
X19296Y20646D1*
X19167D1*
Y20344D1*
X19267Y20502D2*
X19368Y20344D1*
X19604D2*
Y20645D1*
X19460Y20445D1*
X19676D1*
X31269Y20525D2*
X31398D1*
X31442Y20540D1*
X31456Y20554D1*
X31470Y20583D1*
Y20612D1*
X31456Y20640D1*
X31442Y20655D1*
X31398Y20669D1*
X31269D1*
Y20367D1*
X31370Y20525D2*
X31470Y20367D1*
X31735Y20669D2*
X31592D1*
X31578Y20540D1*
X31592Y20554D1*
X31635Y20568D1*
X31678D1*
X31721Y20554D1*
X31750Y20525D1*
X31764Y20482D1*
Y20454D1*
X31750Y20411D1*
X31721Y20382D1*
X31678Y20367D1*
X31635D1*
X31592Y20382D1*
X31578Y20396D1*
X31563Y20425D1*
X30277Y20525D2*
X30406D1*
X30449Y20540D1*
X30463Y20554D1*
X30478Y20583D1*
Y20612D1*
X30463Y20640D1*
X30449Y20655D1*
X30406Y20669D1*
X30277D1*
Y20367D1*
X30377Y20525D2*
X30478Y20367D1*
X30742Y20626D2*
X30728Y20654D1*
X30685Y20669D1*
X30657D1*
X30613Y20654D1*
X30585Y20611D1*
X30570Y20540D1*
Y20468D1*
X30585Y20411D1*
X30613Y20382D1*
X30657Y20367D1*
X30671D1*
X30714Y20382D1*
X30742Y20411D1*
X30757Y20454D1*
Y20468D1*
X30742Y20511D1*
X30714Y20540D1*
X30671Y20554D1*
X30657D1*
X30613Y20540D1*
X30585Y20511D1*
X30570Y20468D1*
X17137Y20521D2*
X17266D1*
X17309Y20535D1*
X17323Y20550D1*
X17338Y20578D1*
Y20607D1*
X17323Y20636D1*
X17309Y20650D1*
X17266Y20664D1*
X17137D1*
Y20363D1*
X17237Y20521D2*
X17338Y20363D1*
X17488D2*
X17631Y20664D1*
X17430D1*
X29145Y20525D2*
X29274D1*
X29317Y20540D1*
X29331Y20554D1*
X29346Y20583D1*
Y20612D1*
X29331Y20640D1*
X29317Y20655D1*
X29274Y20669D1*
X29145D1*
Y20367D1*
X29245Y20525D2*
X29346Y20367D1*
X29510Y20669D2*
X29467Y20654D1*
X29452Y20626D1*
Y20597D1*
X29467Y20568D1*
X29496Y20554D1*
X29553Y20540D1*
X29596Y20525D1*
X29625Y20496D1*
X29639Y20468D1*
Y20425D1*
X29625Y20396D1*
X29610Y20382D1*
X29567Y20367D1*
X29510D1*
X29467Y20382D1*
X29452Y20396D1*
X29438Y20425D1*
Y20468D1*
X29452Y20496D1*
X29481Y20525D1*
X29524Y20540D1*
X29581Y20554D1*
X29610Y20568D1*
X29625Y20597D1*
Y20626D1*
X29610Y20654D1*
X29567Y20669D1*
X29510D1*
X16152Y20525D2*
X16281D1*
X16324Y20540D1*
X16338Y20554D1*
X16353Y20583D1*
Y20612D1*
X16338Y20640D1*
X16324Y20655D1*
X16281Y20669D1*
X16152D1*
Y20367D1*
X16252Y20525D2*
X16353Y20367D1*
X16632Y20568D2*
X16617Y20525D1*
X16589Y20496D1*
X16546Y20482D1*
X16531D1*
X16488Y20496D1*
X16460Y20525D1*
X16445Y20568D1*
Y20583D1*
X16460Y20626D1*
X16488Y20654D1*
X16531Y20669D1*
X16546D1*
X16589Y20654D1*
X16617Y20626D1*
X16632Y20568D1*
Y20496D1*
X16617Y20425D1*
X16589Y20382D1*
X16546Y20367D1*
X16517D1*
X16474Y20382D1*
X16460Y20411D1*
X14150Y20488D2*
X14279D1*
X14322Y20502D1*
X14336Y20517D1*
X14351Y20545D1*
Y20574D1*
X14336Y20603D1*
X14322Y20617D1*
X14279Y20631D1*
X14150D1*
Y20330D1*
X14250Y20488D2*
X14351Y20330D1*
X14443Y20574D2*
X14472Y20588D1*
X14515Y20631D1*
Y20330D1*
X14694Y20631D2*
X14651Y20617D1*
X14622Y20574D1*
X14608Y20502D1*
Y20459D1*
X14622Y20387D1*
X14651Y20344D1*
X14694Y20330D1*
X14723D1*
X14766Y20344D1*
X14794Y20387D1*
X14809Y20459D1*
Y20502D1*
X14794Y20574D1*
X14766Y20617D1*
X14723Y20631D1*
X14694D1*
X14794Y20574D2*
X14622Y20387D1*
X28089Y20488D2*
X28218D1*
X28261Y20502D1*
X28276Y20517D1*
X28290Y20545D1*
Y20574D1*
X28276Y20603D1*
X28261Y20617D1*
X28218Y20631D1*
X28089D1*
Y20330D1*
X28190Y20488D2*
X28290Y20330D1*
X28383Y20574D2*
X28412Y20588D1*
X28455Y20631D1*
Y20330D1*
X28547Y20574D2*
X28576Y20588D1*
X28619Y20631D1*
Y20330D1*
X26087Y20488D2*
X26216D1*
X26259Y20502D1*
X26274Y20517D1*
X26288Y20545D1*
Y20574D1*
X26274Y20603D1*
X26259Y20617D1*
X26216Y20631D1*
X26087D1*
Y20330D1*
X26188Y20488D2*
X26288Y20330D1*
X26381Y20574D2*
X26410Y20588D1*
X26453Y20631D1*
Y20330D1*
X26560Y20559D2*
Y20574D1*
X26574Y20603D1*
X26588Y20617D1*
X26617Y20631D1*
X26675D1*
X26703Y20617D1*
X26717Y20603D1*
X26732Y20574D1*
Y20545D1*
X26717Y20516D1*
X26689Y20474D1*
X26545Y20330D1*
X26746D1*
X22143Y20513D2*
X22272D1*
X22315Y20528D1*
X22330Y20542D1*
X22344Y20570D1*
Y20599D1*
X22330Y20628D1*
X22315Y20642D1*
X22272Y20657D1*
X22143D1*
Y20355D1*
X22244Y20513D2*
X22344Y20355D1*
X22437Y20599D2*
X22466Y20614D1*
X22509Y20656D1*
Y20355D1*
X22630Y20656D2*
X22788D1*
X22702Y20542D1*
X22745D1*
X22773Y20527D1*
X22788Y20513D1*
X22802Y20470D1*
Y20441D1*
X22788Y20398D1*
X22759Y20369D1*
X22716Y20355D1*
X22673D1*
X22630Y20369D1*
X22616Y20384D1*
X22601Y20413D1*
X23080Y20550D2*
X23209D1*
X23252Y20565D1*
X23267Y20579D1*
X23281Y20608D1*
Y20637D1*
X23267Y20665D1*
X23252Y20680D1*
X23209Y20694D1*
X23080D1*
Y20392D1*
X23181Y20550D2*
X23281Y20392D1*
X23374Y20636D2*
X23402Y20651D1*
X23446Y20694D1*
Y20392D1*
X23682D2*
Y20694D1*
X23538Y20493D1*
X23753D1*
X24151Y20489D2*
X24280D1*
X24323Y20503D1*
X24338Y20517D1*
X24352Y20546D1*
Y20575D1*
X24338Y20603D1*
X24323Y20618D1*
X24280Y20632D1*
X24151D1*
Y20331D1*
X24252Y20489D2*
X24352Y20331D1*
X24445Y20575D2*
X24474Y20589D1*
X24517Y20632D1*
Y20331D1*
X24781Y20632D2*
X24638D1*
X24624Y20503D1*
X24638Y20517D1*
X24681Y20532D1*
X24724D1*
X24767Y20517D1*
X24796Y20489D1*
X24810Y20446D1*
Y20417D1*
X24796Y20374D1*
X24767Y20345D1*
X24724Y20331D1*
X24681D1*
X24638Y20345D1*
X24624Y20360D1*
X24609Y20388D1*
X27094Y20488D2*
X27223D1*
X27267Y20502D1*
X27281Y20517D1*
X27295Y20545D1*
Y20574D1*
X27281Y20603D1*
X27267Y20617D1*
X27223Y20631D1*
X27094D1*
Y20330D1*
X27195Y20488D2*
X27295Y20330D1*
X27388Y20574D2*
X27417Y20588D1*
X27460Y20631D1*
Y20330D1*
X27725Y20588D2*
X27710Y20617D1*
X27667Y20631D1*
X27639D1*
X27596Y20617D1*
X27567Y20574D1*
X27553Y20502D1*
Y20430D1*
X27567Y20373D1*
X27596Y20344D1*
X27639Y20330D1*
X27653D1*
X27696Y20344D1*
X27725Y20373D1*
X27739Y20416D1*
Y20430D1*
X27725Y20474D1*
X27696Y20502D1*
X27653Y20516D1*
X27639D1*
X27596Y20502D1*
X27567Y20474D1*
X27553Y20430D1*
X25087Y20488D2*
X25216D1*
X25259Y20502D1*
X25274Y20517D1*
X25288Y20545D1*
Y20574D1*
X25274Y20603D1*
X25259Y20617D1*
X25216Y20631D1*
X25087D1*
Y20330D1*
X25188Y20488D2*
X25288Y20330D1*
X25381Y20574D2*
X25410Y20588D1*
X25453Y20631D1*
Y20330D1*
X25603D2*
X25746Y20631D1*
X25545D1*
X15087Y20488D2*
X15216D1*
X15259Y20502D1*
X15274Y20517D1*
X15288Y20545D1*
Y20574D1*
X15274Y20603D1*
X15259Y20617D1*
X15216Y20631D1*
X15087D1*
Y20330D1*
X15188Y20488D2*
X15288Y20330D1*
X15381Y20574D2*
X15410Y20588D1*
X15453Y20631D1*
Y20330D1*
X15617Y20631D2*
X15574Y20617D1*
X15560Y20588D1*
Y20559D1*
X15574Y20531D1*
X15603Y20516D1*
X15660Y20502D1*
X15703Y20488D1*
X15732Y20459D1*
X15746Y20430D1*
Y20387D1*
X15732Y20359D1*
X15718Y20344D1*
X15675Y20330D1*
X15617D1*
X15574Y20344D1*
X15560Y20359D1*
X15546Y20387D1*
Y20430D1*
X15560Y20459D1*
X15589Y20488D1*
X15631Y20502D1*
X15689Y20516D1*
X15718Y20531D1*
X15732Y20559D1*
Y20588D1*
X15718Y20617D1*
X15675Y20631D1*
X15617D1*
X13094Y20550D2*
X13223D1*
X13266Y20565D1*
X13281Y20579D1*
X13295Y20608D1*
Y20637D1*
X13281Y20665D1*
X13266Y20680D1*
X13223Y20694D1*
X13094D1*
Y20392D1*
X13195Y20550D2*
X13295Y20392D1*
X13388Y20636D2*
X13417Y20651D1*
X13460Y20694D1*
Y20392D1*
X13739Y20593D2*
X13725Y20550D1*
X13696Y20521D1*
X13653Y20507D1*
X13639D1*
X13596Y20521D1*
X13567Y20550D1*
X13552Y20593D1*
Y20608D1*
X13567Y20651D1*
X13596Y20679D1*
X13639Y20694D1*
X13653D1*
X13696Y20679D1*
X13725Y20651D1*
X13739Y20593D1*
Y20521D1*
X13725Y20450D1*
X13696Y20407D1*
X13653Y20392D1*
X13624D1*
X13581Y20407D1*
X13567Y20436D1*
X12023Y20550D2*
X12152D1*
X12195Y20565D1*
X12209Y20579D1*
X12224Y20608D1*
Y20637D1*
X12209Y20665D1*
X12195Y20680D1*
X12152Y20694D1*
X12023D1*
Y20392D1*
X12123Y20550D2*
X12224Y20392D1*
X12331Y20622D2*
Y20636D1*
X12345Y20665D1*
X12359Y20679D1*
X12388Y20694D1*
X12446D1*
X12474Y20679D1*
X12488Y20665D1*
X12503Y20636D1*
Y20608D1*
X12488Y20579D1*
X12460Y20536D1*
X12316Y20392D1*
X12517D1*
X12696Y20694D2*
X12653Y20679D1*
X12624Y20636D1*
X12610Y20565D1*
Y20521D1*
X12624Y20450D1*
X12653Y20407D1*
X12696Y20392D1*
X12725D1*
X12768Y20407D1*
X12796Y20450D1*
X12811Y20521D1*
Y20565D1*
X12796Y20636D1*
X12768Y20679D1*
X12725Y20694D1*
X12696D1*
X12796Y20636D2*
X12624Y20450D1*
X35715Y16863D2*
X35844D1*
X35887Y16878D1*
X35901Y16892D1*
X35916Y16921D1*
Y16949D1*
X35901Y16978D1*
X35887Y16993D1*
X35844Y17007D1*
X35715D1*
Y16705D1*
X35815Y16863D2*
X35916Y16705D1*
X36023Y16935D2*
Y16949D1*
X36037Y16978D1*
X36051Y16992D1*
X36080Y17006D1*
X36138D1*
X36166Y16992D1*
X36180Y16978D1*
X36195Y16949D1*
Y16921D1*
X36180Y16892D1*
X36152Y16849D1*
X36008Y16705D1*
X36209D1*
X36302Y16949D2*
X36331Y16964D1*
X36374Y17006D1*
Y16705D1*
X26312Y18338D2*
X26441D1*
X26484Y18353D1*
X26499Y18367D1*
X26513Y18396D1*
Y18425D1*
X26499Y18453D1*
X26484Y18468D1*
X26441Y18482D1*
X26312D1*
Y18181D1*
X26412Y18338D2*
X26513Y18181D1*
X26620Y18410D2*
Y18424D1*
X26634Y18453D1*
X26649Y18467D1*
X26677Y18482D1*
X26735D1*
X26763Y18467D1*
X26778Y18453D1*
X26792Y18424D1*
Y18396D1*
X26778Y18367D1*
X26749Y18324D1*
X26605Y18181D1*
X26806D1*
X26914Y18410D2*
Y18424D1*
X26928Y18453D1*
X26942Y18467D1*
X26971Y18482D1*
X27028D1*
X27057Y18467D1*
X27071Y18453D1*
X27086Y18424D1*
Y18396D1*
X27071Y18367D1*
X27043Y18324D1*
X26899Y18181D1*
X27100D1*
X34814Y14854D2*
X34943D1*
X34986Y14868D1*
X35000Y14883D1*
X35015Y14911D1*
Y14940D1*
X35000Y14969D1*
X34986Y14983D1*
X34943Y14997D1*
X34814D1*
Y14696D1*
X34914Y14854D2*
X35015Y14696D1*
X35122Y14926D2*
Y14940D1*
X35136Y14969D1*
X35150Y14983D1*
X35179Y14997D1*
X35237D1*
X35265Y14983D1*
X35279Y14969D1*
X35294Y14940D1*
Y14911D1*
X35279Y14882D1*
X35251Y14840D1*
X35107Y14696D1*
X35308D1*
X35430Y14997D2*
X35587D1*
X35501Y14882D1*
X35545D1*
X35573Y14868D1*
X35587Y14854D1*
X35602Y14811D1*
Y14782D1*
X35587Y14739D1*
X35559Y14710D1*
X35516Y14696D1*
X35473D1*
X35430Y14710D1*
X35416Y14725D1*
X35401Y14753D1*
X26305Y17026D2*
X26434D1*
X26477Y17040D1*
X26491Y17055D1*
X26506Y17083D1*
Y17112D1*
X26491Y17141D1*
X26477Y17155D1*
X26434Y17169D1*
X26305D1*
Y16868D1*
X26405Y17026D2*
X26506Y16868D1*
X26613Y17097D2*
Y17112D1*
X26627Y17141D1*
X26641Y17155D1*
X26670Y17169D1*
X26728D1*
X26756Y17155D1*
X26770Y17141D1*
X26785Y17112D1*
Y17083D1*
X26770Y17054D1*
X26742Y17012D1*
X26598Y16868D1*
X26799D1*
X27035D2*
Y17169D1*
X26892Y16968D1*
X27107D1*
X18179Y13398D2*
D63*
X18561Y12393D1*
X18944Y13398D1*
X19970Y13159D2*
X19922Y13254D1*
X19826Y13351D1*
X19731Y13398D1*
X19540D1*
X19444Y13351D1*
X19349Y13254D1*
X19300Y13159D1*
X19252Y13016D1*
Y12776D1*
X19300Y12633D1*
X19349Y12537D1*
X19444Y12442D1*
X19540Y12393D1*
X19731D1*
X19826Y12442D1*
X19922Y12537D1*
X19970Y12633D1*
Y12776D1*
X19731D1*
X21045Y12393D2*
X20661Y13398D1*
X20279Y12393D1*
X20422Y12728D2*
X20901D1*
X27268Y13736D2*
D61*
X27038Y14339D1*
X26808Y13736D1*
X26894Y13937D2*
X27182D1*
X27453Y14138D2*
Y13851D1*
X27482Y13765D1*
X27539Y13736D1*
X27626D1*
X27683Y13765D1*
X27769Y13851D1*
Y14138D2*
Y13736D1*
X28298Y14339D2*
Y13736D1*
Y14052D2*
X28241Y14109D1*
X28184Y14138D1*
X28097D1*
X28040Y14109D1*
X27983Y14052D1*
X27954Y13965D1*
Y13908D1*
X27983Y13822D1*
X28040Y13765D1*
X28097Y13736D1*
X28184D1*
X28241Y13765D1*
X28298Y13822D1*
X28484Y14339D2*
X28512Y14310D1*
X28541Y14339D1*
X28512Y14368D1*
X28484Y14339D1*
X28512Y14138D2*
Y13736D1*
X28870Y14138D2*
X28813Y14109D1*
X28755Y14052D1*
X28727Y13965D1*
Y13908D1*
X28755Y13822D1*
X28813Y13765D1*
X28870Y13736D1*
X28956D1*
X29014Y13765D1*
X29071Y13822D1*
X29100Y13908D1*
Y13965D1*
X29071Y14052D1*
X29014Y14109D1*
X28956Y14138D1*
X28870D1*
X31071Y14818D2*
X31300Y14215D1*
X31530Y14818D1*
X31715D2*
X31744Y14789D1*
X31773Y14818D1*
X31744Y14847D1*
X31715Y14818D1*
X31744Y14617D2*
Y14215D1*
X32302Y14818D2*
Y14215D1*
Y14531D2*
X32245Y14588D1*
X32188Y14617D1*
X32101D1*
X32044Y14588D1*
X31987Y14531D1*
X31958Y14444D1*
Y14387D1*
X31987Y14301D1*
X32044Y14244D1*
X32101Y14215D1*
X32188D1*
X32245Y14244D1*
X32302Y14301D1*
X32488Y14444D2*
X32832D1*
Y14502D1*
X32803Y14560D1*
X32775Y14588D1*
X32717Y14617D1*
X32631D1*
X32574Y14588D1*
X32516Y14531D1*
X32488Y14444D1*
Y14387D1*
X32516Y14301D1*
X32574Y14244D1*
X32631Y14215D1*
X32717D1*
X32775Y14244D1*
X32832Y14301D1*
X33160Y14617D2*
X33103Y14588D1*
X33046Y14531D1*
X33017Y14444D1*
Y14387D1*
X33046Y14301D1*
X33103Y14244D1*
X33160Y14215D1*
X33247D1*
X33304Y14244D1*
X33361Y14301D1*
X33391Y14387D1*
Y14444D1*
X33361Y14531D1*
X33304Y14588D1*
X33247Y14617D1*
X33160D1*
M02*
